{
    "accessors" : [
        {
            "bufferView" : 0,
            "componentType" : 5123,
            "count" : 17931,
            "max" : [
                6865
            ],
            "min" : [
                0
            ],
            "type" : "SCALAR"
        },
        {
            "bufferView" : 1,
            "componentType" : 5126,
            "count" : 6866,
            "max" : [
                582.1093139648438,
                637.283935546875,
                16.682470321655273
            ],
            "min" : [
                -581.8385620117188,
                -636.0327758789062,
                -1318.058349609375
            ],
            "type" : "VEC3"
        },
        {
            "bufferView" : 2,
            "componentType" : 5126,
            "count" : 6866,
            "max" : [
                1.0,
                1.0,
                1.0
            ],
            "min" : [
                -1.0,
                -1.0,
                -1.0
            ],
            "type" : "VEC3"
        },
        {
            "bufferView" : 3,
            "componentType" : 5126,
            "count" : 6866,
            "max" : [
                1.0,
                1.0,
                1.0,
                1.0
            ],
            "min" : [
                -1.0,
                -1.0,
                -1.0,
                -1.0
            ],
            "type" : "VEC4"
        },
        {
            "bufferView" : 4,
            "componentType" : 5126,
            "count" : 6866,
            "max" : [
                6.0,
                1.0
            ],
            "min" : [
                -0.25,
                0.0
            ],
            "type" : "VEC2"
        },
        {
            "bufferView" : 5,
            "componentType" : 5121,
            "count" : 300,
            "max" : [
                84
            ],
            "min" : [
                0
            ],
            "type" : "SCALAR"
        },
        {
            "bufferView" : 6,
            "componentType" : 5126,
            "count" : 85,
            "max" : [
                147.08428955078125,
                146.42312622070312,
                -543.8035888671875
            ],
            "min" : [
                -146.92095947265625,
                -145.97177124023438,
                -1315.0201416015625
            ],
            "type" : "VEC3"
        },
        {
            "bufferView" : 7,
            "componentType" : 5126,
            "count" : 85,
            "max" : [
                1.0,
                0.9945066571235657,
                -0.0
            ],
            "min" : [
                -1.0,
                -1.0,
                -0.0
            ],
            "type" : "VEC3"
        },
        {
            "bufferView" : 8,
            "componentType" : 5126,
            "count" : 85,
            "max" : [
                0.9975740909576416,
                0.9996312260627747,
                5.960529136928017e-08,
                1.0
            ],
            "min" : [
                -1.0,
                -0.9996324777603149,
                -4.326281199951154e-08,
                1.0
            ],
            "type" : "VEC4"
        },
        {
            "bufferView" : 9,
            "componentType" : 5126,
            "count" : 85,
            "max" : [
                4.916200160980225,
                0.9989999999525025
            ],
            "min" : [
                -0.08380000293254852,
                -0.9989999532699585
            ],
            "type" : "VEC2"
        },
        {
            "bufferView" : 10,
            "componentType" : 5123,
            "count" : 768,
            "max" : [
                303
            ],
            "min" : [
                0
            ],
            "type" : "SCALAR"
        },
        {
            "bufferView" : 11,
            "componentType" : 5126,
            "count" : 304,
            "max" : [
                112.92103576660156,
                220.61094665527344,
                -314.1235656738281
            ],
            "min" : [
                -113.06809997558594,
                -0.1239519789814949,
                -404.0314636230469
            ],
            "type" : "VEC3"
        },
        {
            "bufferView" : 12,
            "componentType" : 5126,
            "count" : 304,
            "max" : [
                0.999969482421875,
                0.999969482421875,
                0.999969482421875
            ],
            "min" : [
                -0.999969482421875,
                -0.999969482421875,
                -0.999969482421875
            ],
            "type" : "VEC3"
        },
        {
            "bufferView" : 13,
            "componentType" : 5126,
            "count" : 304,
            "max" : [
                1.0,
                0.9999837875366211,
                0.999602735042572,
                1.0
            ],
            "min" : [
                -0.9999338984489441,
                -0.8613285422325134,
                -0.9999920725822449,
                -1.0
            ],
            "type" : "VEC4"
        },
        {
            "bufferView" : 14,
            "componentType" : 5126,
            "count" : 304,
            "max" : [
                0.9994999766349792,
                1.0
            ],
            "min" : [
                -0.25,
                0.0
            ],
            "type" : "VEC2"
        },
        {
            "bufferView" : 15,
            "componentType" : 5121,
            "count" : 276,
            "max" : [
                147
            ],
            "min" : [
                0
            ],
            "type" : "SCALAR"
        },
        {
            "bufferView" : 16,
            "componentType" : 5126,
            "count" : 148,
            "max" : [
                564.492919921875,
                631.955322265625,
                -31.176469802856445
            ],
            "min" : [
                -564.222412109375,
                -629.7421875,
                -598.1407470703125
            ],
            "type" : "VEC3"
        },
        {
            "bufferView" : 17,
            "componentType" : 5126,
            "count" : 148,
            "max" : [
                1.0,
                1.0,
                1.0
            ],
            "min" : [
                -1.0,
                -1.0,
                -1.0
            ],
            "type" : "VEC3"
        },
        {
            "bufferView" : 18,
            "componentType" : 5126,
            "count" : 148,
            "max" : [
                1.0,
                0.9999434351921082,
                0.9906044006347656,
                1.0
            ],
            "min" : [
                -1.0,
                -0.9999682307243347,
                -0.9906042218208313,
                -1.0
            ],
            "type" : "VEC4"
        },
        {
            "bufferView" : 19,
            "componentType" : 5126,
            "count" : 148,
            "max" : [
                1.6993999481201172,
                1.0
            ],
            "min" : [
                -0.125,
                0.0
            ],
            "type" : "VEC2"
        },
        {
            "bufferView" : 20,
            "componentType" : 5123,
            "count" : 3741,
            "max" : [
                1291
            ],
            "min" : [
                0
            ],
            "type" : "SCALAR"
        },
        {
            "bufferView" : 21,
            "componentType" : 5126,
            "count" : 1292,
            "max" : [
                210.0000762939453,
                228.57510375976562,
                -7.806422710418701
            ],
            "min" : [
                -216.77528381347656,
                -210.04074096679688,
                -1097.6854248046875
            ],
            "type" : "VEC3"
        },
        {
            "bufferView" : 22,
            "componentType" : 5126,
            "count" : 1292,
            "max" : [
                1.0,
                1.0,
                1.0
            ],
            "min" : [
                -1.0,
                -1.0,
                -1.0
            ],
            "type" : "VEC3"
        },
        {
            "bufferView" : 23,
            "componentType" : 5126,
            "count" : 1292,
            "max" : [
                1.0,
                0.992117166519165,
                1.0,
                1.0
            ],
            "min" : [
                -1.0,
                -0.9942192435264587,
                -1.0,
                -1.0
            ],
            "type" : "VEC4"
        },
        {
            "bufferView" : 24,
            "componentType" : 5126,
            "count" : 1292,
            "max" : [
                1.0006999969482422,
                0.5175999999046326
            ],
            "min" : [
                0.0035000001080334187,
                0.19840002059936523
            ],
            "type" : "VEC2"
        },
        {
            "bufferView" : 25,
            "componentType" : 5126,
            "count" : 1,
            "max" : [
                0.0
            ],
            "min" : [
                0.0
            ],
            "type" : "SCALAR"
        },
        {
            "bufferView" : 26,
            "componentType" : 5126,
            "count" : 1,
            "max" : [
                -0.00020065998251084238,
                -6.590291500091553,
                -0.006789420265704393
            ],
            "min" : [
                -0.00020065998251084238,
                -6.590291500091553,
                -0.006789420265704393
            ],
            "type" : "VEC3"
        },
        {
            "bufferView" : 27,
            "componentType" : 5126,
            "count" : 1,
            "max" : [
                0.0
            ],
            "min" : [
                0.0
            ],
            "type" : "SCALAR"
        },
        {
            "bufferView" : 28,
            "componentType" : 5126,
            "count" : 1,
            "max" : [
                0.7071068286895752,
                0.0,
                -0.0,
                0.7071067094802856
            ],
            "min" : [
                0.7071068286895752,
                0.0,
                -0.0,
                0.7071067094802856
            ],
            "type" : "VEC4"
        },
        {
            "bufferView" : 29,
            "componentType" : 5126,
            "count" : 1,
            "max" : [
                0.0
            ],
            "min" : [
                0.0
            ],
            "type" : "SCALAR"
        },
        {
            "bufferView" : 30,
            "componentType" : 5126,
            "count" : 1,
            "max" : [
                0.009999999776482582,
                0.009999999776482582,
                0.009999999776482582
            ],
            "min" : [
                0.009999999776482582,
                0.009999999776482582,
                0.009999999776482582
            ],
            "type" : "VEC3"
        }
    ],
    "animations" : [
        {
            "channels" : [
                {
                    "sampler" : 0,
                    "target" : {
                        "node" : 0,
                        "path" : "translation"
                    }
                },
                {
                    "sampler" : 1,
                    "target" : {
                        "node" : 0,
                        "path" : "rotation"
                    }
                },
                {
                    "sampler" : 2,
                    "target" : {
                        "node" : 0,
                        "path" : "scale"
                    }
                }
            ],
            "samplers" : [
                {
                    "input" : 25,
                    "interpolation" : "LINEAR",
                    "output" : 26
                },
                {
                    "input" : 27,
                    "interpolation" : "LINEAR",
                    "output" : 28
                },
                {
                    "input" : 29,
                    "interpolation" : "LINEAR",
                    "output" : 30
                }
            ]
        }
    ],
    "asset" : {
        "generator" : "Khronos Blender glTF 2.0 exporter",
        "version" : "2.0"
    },
    "bufferViews" : [
        {
            "buffer" : 0,
            "byteLength" : 35862,
            "byteOffset" : 0,
            "target" : 34963
        },
        {
            "buffer" : 0,
            "byteLength" : 82392,
            "byteOffset" : 35864,
            "target" : 34962
        },
        {
            "buffer" : 0,
            "byteLength" : 82392,
            "byteOffset" : 118256,
            "target" : 34962
        },
        {
            "buffer" : 0,
            "byteLength" : 109856,
            "byteOffset" : 200648,
            "target" : 34962
        },
        {
            "buffer" : 0,
            "byteLength" : 54928,
            "byteOffset" : 310504,
            "target" : 34962
        },
        {
            "buffer" : 0,
            "byteLength" : 300,
            "byteOffset" : 365432,
            "target" : 34963
        },
        {
            "buffer" : 0,
            "byteLength" : 1020,
            "byteOffset" : 365732,
            "target" : 34962
        },
        {
            "buffer" : 0,
            "byteLength" : 1020,
            "byteOffset" : 366752,
            "target" : 34962
        },
        {
            "buffer" : 0,
            "byteLength" : 1360,
            "byteOffset" : 367772,
            "target" : 34962
        },
        {
            "buffer" : 0,
            "byteLength" : 680,
            "byteOffset" : 369132,
            "target" : 34962
        },
        {
            "buffer" : 0,
            "byteLength" : 1536,
            "byteOffset" : 369812,
            "target" : 34963
        },
        {
            "buffer" : 0,
            "byteLength" : 3648,
            "byteOffset" : 371348,
            "target" : 34962
        },
        {
            "buffer" : 0,
            "byteLength" : 3648,
            "byteOffset" : 374996,
            "target" : 34962
        },
        {
            "buffer" : 0,
            "byteLength" : 4864,
            "byteOffset" : 378644,
            "target" : 34962
        },
        {
            "buffer" : 0,
            "byteLength" : 2432,
            "byteOffset" : 383508,
            "target" : 34962
        },
        {
            "buffer" : 0,
            "byteLength" : 276,
            "byteOffset" : 385940,
            "target" : 34963
        },
        {
            "buffer" : 0,
            "byteLength" : 1776,
            "byteOffset" : 386216,
            "target" : 34962
        },
        {
            "buffer" : 0,
            "byteLength" : 1776,
            "byteOffset" : 387992,
            "target" : 34962
        },
        {
            "buffer" : 0,
            "byteLength" : 2368,
            "byteOffset" : 389768,
            "target" : 34962
        },
        {
            "buffer" : 0,
            "byteLength" : 1184,
            "byteOffset" : 392136,
            "target" : 34962
        },
        {
            "buffer" : 0,
            "byteLength" : 7482,
            "byteOffset" : 393320,
            "target" : 34963
        },
        {
            "buffer" : 0,
            "byteLength" : 15504,
            "byteOffset" : 400804,
            "target" : 34962
        },
        {
            "buffer" : 0,
            "byteLength" : 15504,
            "byteOffset" : 416308,
            "target" : 34962
        },
        {
            "buffer" : 0,
            "byteLength" : 20672,
            "byteOffset" : 431812,
            "target" : 34962
        },
        {
            "buffer" : 0,
            "byteLength" : 10336,
            "byteOffset" : 452484,
            "target" : 34962
        },
        {
            "buffer" : 0,
            "byteLength" : 4,
            "byteOffset" : 462820
        },
        {
            "buffer" : 0,
            "byteLength" : 12,
            "byteOffset" : 462824
        },
        {
            "buffer" : 0,
            "byteLength" : 4,
            "byteOffset" : 462836
        },
        {
            "buffer" : 0,
            "byteLength" : 16,
            "byteOffset" : 462840
        },
        {
            "buffer" : 0,
            "byteLength" : 4,
            "byteOffset" : 462856
        },
        {
            "buffer" : 0,
            "byteLength" : 12,
            "byteOffset" : 462860
        }
    ],
    "buffers" : [
        {
            "byteLength" : 462872,
            "uri" : "untitled.bin"
        }
    ],
    "images" : [
        {
            "name" : "hbltel_1",
            "uri" : "hbltel_1.jpg"
        },
        {
            "name" : "hbltel_2",
            "uri" : "hbltel_2.jpg"
        },
        {
            "name" : "hbltel_3",
            "uri" : "hbltel_3.jpg"
        },
        {
            "name" : "hbltel_4",
            "uri" : "hbltel_4.jpg"
        },
        {
            "name" : "hbltel_w",
            "uri" : "hbltel_w.jpg"
        }
    ],
    "materials" : [
        {
            "name" : "hbltel_1",
            "pbrMetallicRoughness" : {
                "baseColorFactor" : [
                    0.46745100717918575,
                    0.46745100717918575,
                    0.46745100717918575,
                    1.0
                ],
                "baseColorTexture" : {
                    "index" : 0
                },
                "metallicFactor" : 0.0
            }
        },
        {
            "name" : "hbltel_2",
            "pbrMetallicRoughness" : {
                "baseColorFactor" : [
                    0.46745100717918575,
                    0.46745100717918575,
                    0.46745100717918575,
                    1.0
                ],
                "baseColorTexture" : {
                    "index" : 1
                },
                "metallicFactor" : 0.0
            }
        },
        {
            "name" : "hbltel_3",
            "pbrMetallicRoughness" : {
                "baseColorFactor" : [
                    0.46745100717918575,
                    0.46745100717918575,
                    0.46745100717918575,
                    1.0
                ],
                "baseColorTexture" : {
                    "index" : 2
                },
                "metallicFactor" : 0.0
            }
        },
        {
            "name" : "hbltel_4",
            "pbrMetallicRoughness" : {
                "baseColorFactor" : [
                    0.46745100717918575,
                    0.46745100717918575,
                    0.46745100717918575,
                    1.0
                ],
                "baseColorTexture" : {
                    "index" : 3
                },
                "metallicFactor" : 0.0
            }
        },
        {
            "name" : "hbltel_wfc_1",
            "pbrMetallicRoughness" : {
                "baseColorFactor" : [
                    0.46745100717918575,
                    0.46745100717918575,
                    0.46745100717918575,
                    1.0
                ],
                "baseColorTexture" : {
                    "index" : 4
                },
                "metallicFactor" : 0.0
            }
        }
    ],
    "meshes" : [
        {
            "name" : "Untitled",
            "primitives" : [
                {
                    "attributes" : {
                        "NORMAL" : 2,
                        "POSITION" : 1,
                        "TANGENT" : 3,
                        "TEXCOORD_0" : 4
                    },
                    "indices" : 0,
                    "material" : 0
                },
                {
                    "attributes" : {
                        "NORMAL" : 7,
                        "POSITION" : 6,
                        "TANGENT" : 8,
                        "TEXCOORD_0" : 9
                    },
                    "indices" : 5,
                    "material" : 3
                },
                {
                    "attributes" : {
                        "NORMAL" : 12,
                        "POSITION" : 11,
                        "TANGENT" : 13,
                        "TEXCOORD_0" : 14
                    },
                    "indices" : 10,
                    "material" : 4
                },
                {
                    "attributes" : {
                        "NORMAL" : 17,
                        "POSITION" : 16,
                        "TANGENT" : 18,
                        "TEXCOORD_0" : 19
                    },
                    "indices" : 15,
                    "material" : 2
                },
                {
                    "attributes" : {
                        "NORMAL" : 22,
                        "POSITION" : 21,
                        "TANGENT" : 23,
                        "TEXCOORD_0" : 24
                    },
                    "indices" : 20,
                    "material" : 1
                }
            ]
        }
    ],
    "nodes" : [
        {
            "mesh" : 0,
            "name" : "hst",
            "rotation" : [
                0.7071068286895752,
                0.0,
                -0.0,
                0.7071067094802856
            ],
            "scale" : [
                0.009999999776482582,
                0.009999999776482582,
                0.009999999776482582
            ],
            "translation" : [
                -0.00020065998251084238,
                -6.590291500091553,
                -0.006789420265704393
            ]
        }
    ],
    "samplers" : [
        {}
    ],
    "scene" : 0,
    "scenes" : [
        {
            "name" : "Scene",
            "nodes" : [
                0
            ]
        }
    ],
    "textures" : [
        {
            "sampler" : 0,
            "source" : 0
        },
        {
            "sampler" : 0,
            "source" : 1
        },
        {
            "sampler" : 0,
            "source" : 2
        },
        {
            "sampler" : 0,
            "source" : 3
        },
        {
            "sampler" : 0,
            "source" : 4
        }
    ]
}
