{
    "accessors" : [
        {
            "bufferView" : 0,
            "componentType" : 5125,
            "count" : 822729,
            "max" : [
                822728
            ],
            "min" : [
                0
            ],
            "type" : "SCALAR"
        },
        {
            "bufferView" : 1,
            "componentType" : 5126,
            "count" : 822729,
            "max" : [
                359.7622375488281,
                2119.92431640625,
                358.0598449707031
            ],
            "min" : [
                -340.3861083984375,
                -0.6337927579879761,
                -280.8642883300781
            ],
            "type" : "VEC3"
        },
        {
            "bufferView" : 2,
            "componentType" : 5126,
            "count" : 822729,
            "max" : [
                0.9999926090240479,
                1.0,
                0.9999980330467224
            ],
            "min" : [
                -0.9999952912330627,
                -0.9999992251396179,
                -0.9999992251396179
            ],
            "type" : "VEC3"
        }
    ],
    "asset" : {
        "generator" : "Khronos Blender glTF 2.0 exporter",
        "version" : "2.0"
    },
    "bufferViews" : [
        {
            "buffer" : 0,
            "byteLength" : 3290916,
            "byteOffset" : 0,
            "target" : 34963
        },
        {
            "buffer" : 0,
            "byteLength" : 9872748,
            "byteOffset" : 3290916,
            "target" : 34962
        },
        {
            "buffer" : 0,
            "byteLength" : 9872748,
            "byteOffset" : 13163664,
            "target" : 34962
        }
    ],
    "buffers" : [
        {
            "byteLength" : 23036412,
            "uri" : "venus-de-milo.bin"
        }
    ],
    "meshes" : [
        {
            "name" : "Venus.001",
            "primitives" : [
                {
                    "attributes" : {
                        "NORMAL" : 2,
                        "POSITION" : 1
                    },
                    "indices" : 0
                }
            ]
        }
    ],
    "nodes" : [
        {
            "name" : "Camera",
            "rotation" : [
                0.483536034822464,
                0.33687159419059753,
                -0.20870360732078552,
                0.7804827094078064
            ],
            "translation" : [
                7.481131553649902,
                5.34366512298584,
                6.5076398849487305
            ]
        },
        {
            "name" : "Lamp",
            "rotation" : [
                0.16907575726509094,
                0.7558802962303162,
                -0.27217137813568115,
                0.570947527885437
            ],
            "scale" : [
                1.0,
                1.0,
                0.9999999403953552
            ],
            "translation" : [
                4.076245307922363,
                5.903861999511719,
                -1.0054539442062378
            ]
        },
        {
            "mesh" : 0,
            "name" : "Venus",
            "scale" : [
                0.0009572936105541885,
                0.0009572948329150677,
                0.0009572938433848321
            ]
        }
    ],
    "scene" : 0,
    "scenes" : [
        {
            "name" : "Scene",
            "nodes" : [
                2,
                1,
                0
            ]
        }
    ]
}
